<svg xmlns="http://www.w3.org/2000/svg" width="155" height="205" viewBox="0 0 155 205">
  <path id="Icon_ionic-md-bulb" data-name="Icon ionic-md-bulb" d="M49.542,194.083A10.446,10.446,0,0,0,59.958,204.5h45.833a10.446,10.446,0,0,0,10.417-10.417v-9.375H49.542ZM82.875,4.5c-41.51,0-75,31.2-75,69.792,0,23.8,12.552,44.9,31.979,57.6v22.6c0,5.521,4.844,10,10.729,10h64.531c5.938,0,10.729-4.479,10.729-10V131.9c19.479-12.708,32.031-33.8,32.031-57.6C157.875,35.7,124.385,4.5,82.875,4.5Z" transform="translate(-5.375 -2)" fill="none" stroke="#000" stroke-width="5"/>
</svg>
