<svg xmlns="http://www.w3.org/2000/svg" xmlns:xlink="http://www.w3.org/1999/xlink" width="833" height="733" viewBox="0 0 833 733">
  <defs>
    <clipPath id="clip-path">
      <rect id="사각형_16" data-name="사각형 16" width="833" height="733" transform="translate(1087 6827)" fill="#fff" stroke="#707070" stroke-width="1"/>
    </clipPath>
  </defs>
  <g id="마스크_그룹_2" data-name="마스크 그룹 2" transform="translate(-1087 -6827)" clip-path="url(#clip-path)">
    <g id="undraw_lost_online_re_upmy" transform="translate(1087 6827.157)">
      <path id="패스_5" data-name="패스 5" d="M168.23,377.06C213.3,434.7,298.351,447.9,368.722,427.823a326.336,326.336,0,0,0,66.238-27.575c12.2-6.624,24.1-13.89,35.764-21.632,2.869-1.9,5.739-3.823,8.579-5.787q2.9-1.984,5.788-4.017c24.083-16.944,47.222-35.531,69.972-54.011,56.793-46.133,115.142-93.686,184.92-115.7,14.376-4.533,32.973-6.653,41.863,5.525,7.713,10.573,3.005,25.542-3.521,36.883-24.209,42.009-68.153,68.533-112.137,88.929s-90.573,36.922-128.808,66.743-67.424,77.219-59.6,125.063c6.741,41.231,40.4,74.729,79.544,89.328s82.792,12.557,123.478,3.083,79.31-26.028,118.576-40.287c23.674-8.608,54.624-14.561,70.333,5.136,13.267,16.642,5.641,42.894-10.515,56.744s-38.021,18.49-58.884,22.653q-97.168,19.4-194.336,38.8c-19.871,3.959-40.209,8.1-57.522,18.646s-31.281,28.936-30.785,49.2c.5,19.969,15.115,37.612,33.032,46.454s38.585,10.193,58.534,9.24c74.758-3.579,289.082-122.35,340.486-137.533,33.031-9.746,69.146-24.063,83.074-55.558,17.342-39.208-11.2-86.644-50.15-104.55s-84.1-13.948-126.542-7.917-86.293,13.7-127.612,2.247-79.174-48.808-75.1-91.488c3.551-37.136,37-65.119,72.2-77.452,27.555-9.658,56.871-12.285,85.816-16.632,8.034-1.2,16.039-2.539,23.966-4.192A298.686,298.686,0,0,0,894.46,309.2a304.363,304.363,0,0,0,56.453-32.4,296.911,296.911,0,0,0,39.217-34.052q2.758-2.86,5.457-5.846c1.712-1.906,3.4-3.852,5.058-5.836,21.515-25.707,37.409-57.367,32.642-89.99-4.756-32.535-30.113-59.623-60.3-72.638-17.449-7.519-36.27-10.884-55.324-11.37a227.4,227.4,0,0,0-41.61,3c-63.621,10.174-121.922,41.085-176.984,74.554s-108.7,70.206-168.551,94.065-127.972,33.975-188.684,12.392-110.59-80.438-107.624-144.8c-40.268,34.675-74.486,78.259-89.64,129.187S135.5,335.2,168.23,377.06Z" transform="translate(-136.687 -57.022)" fill="#3f3d56"/>
      <circle id="타원_1" data-name="타원 1" cx="7.079" cy="7.079" r="7.079" transform="translate(314.601 239.366)" fill="#227cff"/>
      <ellipse id="타원_2" data-name="타원 2" cx="10.944" cy="10.944" rx="10.944" ry="10.944" transform="translate(60.764 142.126)" fill="#ff6584"/>
      <circle id="타원_3" data-name="타원 3" cx="4.044" cy="4.044" r="4.044" transform="translate(785.481 493.345)" fill="#ff6584"/>
      <path id="패스_6" data-name="패스 6" d="M284.237,328.186a43.216,43.216,0,0,0,1.264,10.407c8.034-1.2,16.039-2.539,23.966-4.192a298.687,298.687,0,0,0,59.089-18.967,43.125,43.125,0,0,0-84.319,12.751Z" transform="translate(389.219 -63.259)" fill="#ff6584"/>
      <circle id="타원_4" data-name="타원 4" cx="4.136" cy="4.136" r="4.136" transform="translate(137.604 219.938)" fill="#f0f0f0"/>
      <circle id="타원_5" data-name="타원 5" cx="4.136" cy="4.136" r="4.136" transform="translate(515.965 675.139)" fill="#f0f0f0"/>
      <circle id="타원_6" data-name="타원 6" cx="4.136" cy="4.136" r="4.136" transform="translate(456.633 732.525)" fill="#f0f0f0"/>
      <circle id="타원_7" data-name="타원 7" cx="4.136" cy="4.136" r="4.136" transform="translate(823.323 569.12)" fill="#f0f0f0"/>
      <circle id="타원_8" data-name="타원 8" cx="4.136" cy="4.136" r="4.136" transform="translate(620.038 492.281)" fill="#f0f0f0"/>
      <circle id="타원_9" data-name="타원 9" cx="4.136" cy="4.136" r="4.136" transform="translate(640.464 81.822)" fill="#f0f0f0"/>
      <circle id="타원_10" data-name="타원 10" cx="4.136" cy="4.136" r="4.136" transform="translate(390.493 405.715)" fill="#f0f0f0"/>
      <circle id="타원_11" data-name="타원 11" cx="4.136" cy="4.136" r="4.136" transform="translate(359.368 477.691)" fill="#f0f0f0"/>
      <path id="패스_7" data-name="패스 7" d="M360.39,217.793q-8.827-2.664-16.887-5.773c-33.032-12.758-51.977-30.066-51.977-47.485s18.945-34.727,51.977-47.485q4.9-1.892,10.1-3.622a132.611,132.611,0,0,0,6.785,104.365Z" transform="translate(390.294 -58.565)" fill="none"/>
      <path id="패스_8" data-name="패스 8" d="M140.633,156.182a131.736,131.736,0,0,0,14.4,60.071q1.882,3.677,3.988,7.227A132.7,132.7,0,0,0,218.571,276.8a296.921,296.921,0,0,0,39.217-34.052q2.758-2.86,5.457-5.846c1.712-1.906,3.4-3.852,5.057-5.836,21.515-25.707,37.409-57.367,32.642-89.99-4.756-32.535-30.113-59.623-60.3-72.638-17.449-7.519-36.27-10.884-55.324-11.37a132.4,132.4,0,0,0-34.364,47.816c-.973,2.305-1.867,4.64-2.714,7a132.042,132.042,0,0,0-7.606,44.295Z" transform="translate(595.657 -57.024)" fill="#227cff"/>
      <path id="패스_9" data-name="패스 9" d="M175.066,164.335c0,20.26,19.784,39.052,55.713,52.932,7.188,2.782,14.882,5.3,22.974,7.557,30.288,8.443,66.335,13.121,104.229,13.423,1.712-1.906,3.4-3.852,5.057-5.836-.408.01-.817.01-1.225.01-41.153,0-80.2-5.213-112.049-14.823-5.884-1.78-11.526-3.706-16.885-5.778C199.85,199.068,180.9,181.755,180.9,164.335s18.947-34.724,51.978-47.485q4.9-1.9,10.1-3.618c.846-2.364,1.741-4.7,2.714-7q-7.761,2.422-14.911,5.174C194.849,125.283,175.066,144.085,175.066,164.335Z" transform="translate(500.92 -58.368)" fill="#e4e4e4"/>
      <circle id="타원_12" data-name="타원 12" cx="4.136" cy="4.136" r="4.136" transform="translate(852.502 25.408)" fill="#f0f0f0"/>
      <circle id="타원_13" data-name="타원 13" cx="4.136" cy="4.136" r="4.136" transform="translate(765.936 51.67)" fill="#f0f0f0"/>
      <ellipse id="타원_14" data-name="타원 14" cx="40.218" cy="40.218" rx="40.218" ry="40.218" transform="translate(774.596 57.412)" fill="#f0f0f0"/>
      <path id="패스_10" data-name="패스 10" d="M711.067,376.239c9.027,2.665,28.927,4.63,50.811,5.836s45.87,1.722,69.564,2.227q62.21,1.342,124.412,2.694,8.55.19,17.158.35c2.869-1.9,5.739-3.823,8.579-5.787-5.087.029-10.174,0-15.222-.1-21.564-.428-39.82-2.111-60.615-2.908-32-1.235-66.549-.263-99.9.233S734.5,379.108,711.067,376.239Z" transform="translate(-638.972 -65.753)" fill="#f0f0f0" opacity="0.3"/>
      <path id="패스_11" data-name="패스 11" d="M200.776,688.373l132.2-110.134L204.546,692.784a3.065,3.065,0,1,1-3.77-4.411Z" transform="translate(507.851 -71.277)" fill="#f0f0f0" opacity="0.3"/>
      <circle id="타원_15" data-name="타원 15" cx="4.136" cy="4.136" r="4.136" transform="translate(804.842 191.732)" fill="#f0f0f0"/>
      <path id="패스_12" data-name="패스 12" d="M477.258,692.219H460.152l-8.138-65.982h25.247Z" transform="translate(-15.62 -17.146)" fill="#ffb6b6"/>
      <path id="패스_13" data-name="패스 13" d="M639.374,745.12h-4.815l-18.8-7.645-10.075,7.644h0a21.47,21.47,0,0,0-21.469,21.468v.7l55.158,0Z" transform="translate(-173.372 -75.632)" fill="#2f2e41"/>
      <path id="패스_14" data-name="패스 14" d="M294.357,692.219h17.106l8.138-65.982H294.354Z" transform="translate(295.388 -17.146)" fill="#ffb6b6"/>
      <path id="패스_15" data-name="패스 15" d="M404.77,767.287l55.158,0v-.7a21.47,21.47,0,0,0-21.467-21.468h0l-10.075-7.644-18.8,7.645h-4.815Z" transform="translate(180.613 -75.632)" fill="#2f2e41"/>
      <path id="패스_16" data-name="패스 16" d="M540.177,231.191,557.5,244.38l46.011,12.185S587.022,372.272,594.8,380.053s.763,7.99,2.327,18.1,7.794,36.8,7.794,36.8H467.6s-1.107-16.586,5.663-20.178-6.24-20.357-.708-23.16-2.249-27.119-2.249-27.119L453.44,284.88l44.853-35.093,6.821-16.435Z" transform="translate(-11.725 -61.786)" fill="#227cff"/>
      <ellipse id="타원_16" data-name="타원 16" cx="5.993" cy="5.993" rx="5.993" ry="5.993" transform="translate(500.847 260.814)" fill="#f2f2f2"/>
      <path id="패스_17" data-name="패스 17" d="M588.206,440.678,593.869,586.5s24.451,107.7,20.2,110.532-6.046,19.715-6.046,19.715l-24.068,2.831s0-11.326-5.663-15.573-58.045-203.866-58.045-203.866l-51.1,193S467.87,704,463.623,704s-5.663,15.573-5.663,15.573H433.892V704s-10.814-3.429-6.567-14.754,23.556-248.573,23.556-248.573Z" transform="translate(4.992 -67.515)" fill="#2f2e41"/>
      <ellipse id="타원_17" data-name="타원 17" cx="29.023" cy="29.023" rx="29.023" ry="29.023" transform="translate(481.443 102.67)" fill="#ffb6b6"/>
      <path id="패스_18" data-name="패스 18" d="M461.344,268.976l-5.663,4.248L452.85,253.4Z" transform="translate(-0.516 -6.949)" opacity="0.1"/>
      <path id="패스_19" data-name="패스 19" d="M491.5,257.162s7.079-1.416,11.326,11.326,19.82,60.877,19.82,69.371-96.983,45.974-96.983,45.974l10.091-35.4,44.42-23.315Z" transform="translate(97.567 -62.495)" fill="#227cff"/>
      <circle id="타원_18" data-name="타원 18" cx="16.535" cy="16.535" r="16.535" transform="translate(502.199 283.02)" fill="#ffb6b6"/>
      <path id="패스_20" data-name="패스 20" d="M373.687,252l-1.295,17.536-41.076,21.56,36.535-24.506Z" transform="translate(205.352 -6.911)" opacity="0.1"/>
      <path id="패스_21" data-name="패스 21" d="M519.806,310.922h.533v-14.6a8.449,8.449,0,0,1,8.449-8.449h30.927a8.449,8.449,0,0,1,8.449,8.449v80.085a8.449,8.449,0,0,1-8.449,8.449H528.787a8.449,8.449,0,0,1-8.449-8.449v-55.1h-.533Z" transform="translate(-39.514 -63.336)" fill="#f0f0f0"/>
      <path id="패스_22" data-name="패스 22" d="M585.451,286.39s-4.247,2.831-7.079,15.573-21.236,60.877-14.157,72.2,9.168,23.414,33.236,6.425l33.3-30.493-24.068-22.652-9.91,7.079Z" transform="translate(-143.736 -63.295)" fill="#227cff"/>
      <circle id="타원_19" data-name="타원 19" cx="7.079" cy="7.079" r="7.079" transform="translate(497.28 246.076)" fill="#227cff"/>
      <circle id="타원_20" data-name="타원 20" cx="16.535" cy="16.535" r="16.535" transform="translate(467.332 252.127)" fill="#ffb6b6"/>
      <path id="패스_23" data-name="패스 23" d="M376.625,306.41l-47.467,21,48.786-9.535Z" transform="translate(203.193 -8.399)" opacity="0.1"/>
      <path id="패스_24" data-name="패스 24" d="M569.613,196.943l3.985-15.166c1.04-3.957,2.088-7.994,1.854-12.079s-1.966-8.3-5.407-10.513-8.694-1.69-10.909,1.75c-.421-5.493-5.418-9.719-10.72-11.216s-10.931-.9-16.435-.652-11.313.076-16.063-2.715a4.973,4.973,0,0,0,2.226,5.876,4.827,4.827,0,0,1-5.831-3.076,12.527,12.527,0,0,0,3.289,8.6,9.216,9.216,0,0,0-11.912,3.373c-2.424,4.2-1.066,9.48.353,14.12l7.279,23.813c1.1-3.62,1.312-7.442,1.9-11.18s1.641-7.556,4.109-10.425,6.659-4.531,10.165-3.106c1.967.8,3.467,2.421,5.243,3.585,3.644,2.388,8.279,2.731,12.609,2.245s8.549-1.719,12.878-2.211c2.71-.308,5.735-.227,7.78,1.579a10,10,0,0,1,2.663,5.318,42.3,42.3,0,0,1,1.126,12.2" transform="translate(-29.868 -59.466)" fill="#2f2e41"/>
    </g>
  </g>
</svg>
