<svg xmlns="http://www.w3.org/2000/svg" width="758.697" height="621.393" viewBox="0 0 758.697 621.393">
  <g id="submitpage_img" transform="translate(0 0)">
    <path id="패스_57" data-name="패스 57" d="M948.765,379.171c0,118.6-76.18,219.4-182.28,256.14a272.758,272.758,0,0,1-132.97,11.26q-6.345-1.035-12.6-2.38-8.475-1.8-16.75-4.14c-113.91-32.06-197.4-136.72-197.4-260.88,0-149.67,121.33-271,271-271S948.765,229.5,948.765,379.171Z" transform="translate(-220.652 -108.171)" fill="#e6e6e6"/>
    <path id="패스_58" data-name="패스 58" d="M508.028,462.814a2.043,2.043,0,0,0-.839,2.762L609.077,656.415a2.043,2.043,0,0,0,2.762.839l144.03-76.9a2.043,2.043,0,0,0,.839-2.762L654.819,386.756a2.043,2.043,0,0,0-2.762-.839Z" transform="translate(-220.652 -108.171)" fill="#3f3d56"/>
    <path id="패스_59" data-name="패스 59" d="M521.416,468.391l93.239,174.635,127.826-68.245L649.242,400.144Zm-8.1,4.324.018-.009-.02.01Z" transform="translate(-220.652 -108.171)" fill="#fff"/>
    <path id="패스_60" data-name="패스 60" d="M553.645,487.59c-1.986,1.06-2.409,4.155-.944,6.9s4.272,4.114,6.257,3.054l93.619-49.983c1.986-1.06,2.409-4.155.944-6.9s-4.272-4.114-6.257-3.054Z" transform="translate(-220.652 -108.171)" fill="#227cff"/>
    <path id="패스_61" data-name="패스 61" d="M565.18,509.194c-1.986,1.06-2.409,4.155-.944,6.9s4.272,4.114,6.257,3.054l93.619-49.983c1.986-1.06,2.409-4.155.944-6.9s-4.272-4.114-6.257-3.054Z" transform="translate(-220.652 -108.171)" fill="#227cff"/>
    <path id="패스_62" data-name="패스 62" d="M576.715,530.8c-1.986,1.06-2.409,4.155-.944,6.9s4.272,4.114,6.257,3.054l93.619-49.983c1.986-1.06,2.409-4.155.944-6.9s-4.272-4.114-6.257-3.054Z" transform="translate(-220.652 -108.171)" fill="#227cff"/>
    <path id="패스_63" data-name="패스 63" d="M588.249,552.4c-1.986,1.06-2.409,4.155-.944,6.9s4.272,4.114,6.257,3.054l93.619-49.983c1.986-1.06,2.409-4.155.944-6.9s-4.272-4.114-6.257-3.054Z" transform="translate(-220.652 -108.171)" fill="#227cff"/>
    <path id="패스_64" data-name="패스 64" d="M599.784,574.008c-1.986,1.06-2.409,4.155-.944,6.9s4.272,4.114,6.257,3.054l93.619-49.983c1.986-1.06,2.409-4.155.944-6.9s-4.272-4.114-6.257-3.054Z" transform="translate(-220.652 -108.171)" fill="#227cff"/>
    <path id="패스_65" data-name="패스 65" d="M397.312,272.193l84.83,5.18L505.9,206.525l-74.4-15.721Z" fill="#2f2e41"/>
    <circle id="타원_26" data-name="타원 26" cx="33.927" cy="33.927" r="33.927" transform="translate(424.564 186.424)" fill="#ffb8b8"/>
    <path id="패스_66" data-name="패스 66" d="M766.265,632.671l.22,2.64a272.758,272.758,0,0,1-132.97,11.26l-12.6-2.38,11.99-26.59,7.86-17.43-2.83-60.3-.3-6.24-.37-7.96,5.12-.03,36.4-.22,34.69-.22,5.29-.03C751.935,565.971,779.3,599.131,766.265,632.671Z" transform="translate(-220.652 -108.171)" fill="#2f2e41"/>
    <path id="패스_67" data-name="패스 67" d="M718.265,524.671l-81,9-3-56c-9.506-24.244-3.231-45.884,16.5-65.3l4.011-15.876a23.5,23.5,0,0,1,17.362-17.112h0c13.259-7.6,28.278-11.229,45.13-10.709h0a33.676,33.676,0,0,1,21.324,33.987C735.1,446.668,728.847,487.864,718.265,524.671Z" transform="translate(-220.652 -108.171)" fill="#227cff"/>
    <path id="패스_68" data-name="패스 68" d="M653.477,288.437s-17.543,6.4-17.993,29.677a42.021,42.021,0,0,0,1.553,11.589c1.137,4.278,2.05,13.559-5.6,25.931A239.871,239.871,0,0,0,617.9,380.548h0l19.753,1.906,3.266-32.745a162.532,162.532,0,0,1,11.611-46.167l.128-.308s9.062,15.75,26.285,15.265l-6.324-5.978s21.572,8.124,33.3,9.755A7.429,7.429,0,0,1,710.4,334.63q-.1.113-.211.227c-7.173,7.589-21.451,25.228-12.458,38.518s1.715,17.189,1.715,17.189L712.77,382.8l6.047-3.864.139,4.921,31.882-4.592s8.577-1.473-10.466-21.867c0,0-5.1-7.984-3.167-15.049a35.346,35.346,0,0,0,.878-16.562C733.3,302.842,715.788,257.447,653.477,288.437Z" transform="translate(-220.652 -108.171)" fill="#2f2e41"/>
    <path id="패스_69" data-name="패스 69" d="M221.394,430.7a1,1,0,0,0-.709,1.224l27.29,102.427a1,1,0,0,0,1.224.709l77.3-20.6a1,1,0,0,0,.709-1.224l-27.29-102.427a1,1,0,0,0-1.224-.709Z" transform="translate(-220.652 -108.171)" fill="#f2f2f2"/>
    <path id="패스_70" data-name="패스 70" d="M240.39,447.62c-1.066.284-1.613,1.713-1.221,3.186s1.578,2.44,2.644,2.156l50.247-13.388c1.066-.284,1.613-1.713,1.221-3.186s-1.578-2.44-2.644-2.156Z" transform="translate(-220.652 -108.171)" fill="#fff"/>
    <path id="패스_71" data-name="패스 71" d="M243.479,459.215c-1.066.284-1.613,1.713-1.221,3.186s1.578,2.44,2.644,2.156l50.247-13.388c1.066-.284,1.613-1.713,1.221-3.186s-1.578-2.44-2.644-2.156Z" transform="translate(-220.652 -108.171)" fill="#fff"/>
    <path id="패스_72" data-name="패스 72" d="M246.568,470.811c-1.066.284-1.613,1.713-1.221,3.186s1.578,2.44,2.644,2.156l50.247-13.388c1.066-.284,1.613-1.713,1.221-3.186s-1.578-2.44-2.644-2.156Z" transform="translate(-220.652 -108.171)" fill="#fff"/>
    <path id="패스_73" data-name="패스 73" d="M249.658,482.406c-1.066.284-1.613,1.713-1.221,3.186s1.578,2.44,2.644,2.156l50.247-13.388c1.066-.284,1.613-1.713,1.221-3.186s-1.578-2.44-2.644-2.156Z" transform="translate(-220.652 -108.171)" fill="#fff"/>
    <path id="패스_74" data-name="패스 74" d="M252.747,494c-1.066.284-1.613,1.713-1.221,3.186s1.578,2.44,2.644,2.156l50.247-13.388c1.066-.284,1.613-1.713,1.221-3.186s-1.578-2.44-2.644-2.156Z" transform="translate(-220.652 -108.171)" fill="#fff"/>
    <path id="패스_75" data-name="패스 75" d="M255.837,505.6c-1.066.284-1.613,1.713-1.221,3.186s1.578,2.44,2.644,2.156l50.247-13.388c1.066-.284,1.613-1.713,1.221-3.186s-1.578-2.44-2.644-2.156Z" transform="translate(-220.652 -108.171)" fill="#fff"/>
    <path id="패스_83" data-name="패스 83" d="M224.23,356.789a1,1,0,0,0-.411,1.353l49.923,93.507a1,1,0,0,0,1.353.411l70.572-37.678a1,1,0,0,0,.411-1.353l-49.924-93.508a1,1,0,0,0-1.353-.411Z" transform="translate(-220.652 -108.171)" fill="#e6e6e6"/>
    <path id="패스_84" data-name="패스 84" d="M230.79,359.521l45.685,85.567,62.632-33.438-45.685-85.568Zm-3.969,2.119.009,0-.01,0Z" transform="translate(-220.652 -108.171)" fill="#fff"/>
    <path id="패스_85" data-name="패스 85" d="M246.581,368.928c-.973.52-1.18,2.036-.463,3.38s2.093,2.016,3.066,1.5l45.873-24.49c.973-.52,1.18-2.036.463-3.38s-2.093-2.016-3.066-1.5Z" transform="translate(-220.652 -108.171)" fill="#227cff"/>
    <path id="패스_86" data-name="패스 86" d="M252.233,379.514c-.973.52-1.18,2.036-.463,3.38s2.093,2.016,3.066,1.5L300.708,359.9c.973-.52,1.18-2.036.463-3.38s-2.093-2.016-3.066-1.5Z" transform="translate(-220.652 -108.171)" fill="#227cff"/>
    <path id="패스_87" data-name="패스 87" d="M257.885,390.1c-.973.52-1.18,2.036-.463,3.38s2.093,2.016,3.066,1.5l45.872-24.49c.973-.52,1.18-2.036.463-3.38s-2.093-2.016-3.066-1.5Z" transform="translate(-220.652 -108.171)" fill="#227cff"/>
    <path id="패스_88" data-name="패스 88" d="M263.537,400.686c-.973.52-1.18,2.036-.463,3.38s2.093,2.016,3.066,1.5l45.872-24.491c.973-.52,1.18-2.036.463-3.38s-2.093-2.016-3.066-1.5Z" transform="translate(-220.652 -108.171)" fill="#227cff"/>
    <path id="패스_89" data-name="패스 89" d="M269.188,411.271c-.973.52-1.18,2.036-.463,3.38s2.093,2.016,3.066,1.5l45.872-24.49c.973-.52,1.18-2.036.463-3.38s-2.093-2.016-3.066-1.5Z" transform="translate(-220.652 -108.171)" fill="#227cff"/>
    <path id="패스_90" data-name="패스 90" d="M274.84,421.857c-.973.52-1.18,2.036-.463,3.38s2.093,2.016,3.066,1.5l45.872-24.491c.973-.52,1.18-2.036.463-3.38s-2.093-2.016-3.066-1.5Z" transform="translate(-220.652 -108.171)" fill="#227cff"/>
    <path id="패스_91" data-name="패스 91" d="M909.984,595.746a1,1,0,0,0-1.37.352l-53.927,91.257a1,1,0,0,0,.352,1.37l68.873,40.7a1,1,0,0,0,1.37-.352l53.928-91.257a1,1,0,0,0-.352-1.37Z" transform="translate(-220.652 -108.171)" fill="#e6e6e6"/>
    <path id="패스_92" data-name="패스 92" d="M911.06,602.771l-49.348,83.508L922.836,722.4l49.349-83.509Zm-3.873-2.289.008.005-.009-.006Z" transform="translate(-220.652 -108.171)" fill="#fff"/>
    <path id="패스_93" data-name="패스 93" d="M911.233,621.151c-.95-.561-2.353.05-3.128,1.362s-.634,2.836.316,3.4l44.768,26.455c.95.561,2.353-.05,3.128-1.362s.634-2.836-.316-3.4Z" transform="translate(-220.652 -108.171)" fill="#227cff"/>
    <path id="패스_94" data-name="패스 94" d="M905.128,631.482c-.95-.561-2.353.05-3.128,1.362s-.634,2.836.316,3.4L947.083,662.7c.95.561,2.353-.05,3.128-1.362s.634-2.836-.316-3.4Z" transform="translate(-220.652 -108.171)" fill="#227cff"/>
    <path id="패스_95" data-name="패스 95" d="M899.023,641.813c-.95-.561-2.353.05-3.128,1.362s-.634,2.836.316,3.4l44.768,26.455c.95.561,2.353-.05,3.128-1.362s.634-2.836-.316-3.4Z" transform="translate(-220.652 -108.171)" fill="#227cff"/>
    <path id="패스_96" data-name="패스 96" d="M892.918,652.144c-.95-.561-2.353.05-3.128,1.362s-.634,2.836.316,3.4l44.768,26.455c.95.561,2.353-.05,3.128-1.362s.634-2.836-.316-3.4Z" transform="translate(-220.652 -108.171)" fill="#227cff"/>
    <path id="패스_97" data-name="패스 97" d="M886.813,662.475c-.95-.561-2.353.05-3.128,1.362s-.634,2.836.316,3.4l44.768,26.455c.95.561,2.353-.05,3.128-1.362s.634-2.836-.316-3.4Z" transform="translate(-220.652 -108.171)" fill="#227cff"/>
    <path id="패스_98" data-name="패스 98" d="M880.708,672.806c-.95-.561-2.353.05-3.128,1.362s-.634,2.836.316,3.4l44.768,26.455c.95.561,2.353-.05,3.128-1.362s.634-2.836-.316-3.4Z" transform="translate(-220.652 -108.171)" fill="#227cff"/>
    <path id="패스_99" data-name="패스 99" d="M661.264,429.671l-1.04,6.44-10.961,67.56-6.88,21.97-2.42,7.73-2.03,6.5-24.67,78.8-6.769,15.9a18.995,18.995,0,1,0,22.213,7.013l48.286-112.326,1.79-3.84,5.48-11.75,10.35-78.09.65-4.91Z" transform="translate(-220.652 -108.171)" fill="#ffb8b8"/>
    <path id="패스_100" data-name="패스 100" d="M701.265,437.671c-15.716-5.647-30.792-6.248-45,0l4.637-40.2a19.171,19.171,0,0,1,18.152-19.794h0a19.171,19.171,0,0,1,20.151,18.137l0,.066Z" transform="translate(-220.652 -108.171)" fill="#227cff"/>
  </g>
</svg>
