<svg xmlns="http://www.w3.org/2000/svg" width="31" height="29" viewBox="0 0 31 29">
  <path id="Icon_ionic-ios-heart-empty" data-name="Icon ionic-ios-heart-empty" d="M26.029,3.938h-.075a8.538,8.538,0,0,0-7.079,3.77A8.538,8.538,0,0,0,11.8,3.938h-.075A8.311,8.311,0,0,0,3.375,12.13a17.345,17.345,0,0,0,3.562,9.621c4.486,5.967,11.938,11.187,11.938,11.187s7.452-5.22,11.938-11.187a17.345,17.345,0,0,0,3.562-9.621A8.311,8.311,0,0,0,26.029,3.938Zm3.1,16.617a56.467,56.467,0,0,1-10.254,9.831A56.55,56.55,0,0,1,8.621,20.547a15.373,15.373,0,0,1-3.16-8.417A6.05,6.05,0,0,1,7.295,7.794a6.381,6.381,0,0,1,4.441-1.82H11.8a6.429,6.429,0,0,1,5.328,2.849,2.126,2.126,0,0,0,3.5,0A6.507,6.507,0,0,1,22.9,6.758a6.384,6.384,0,0,1,3.063-.783h.067a6.394,6.394,0,0,1,4.441,1.82A6.032,6.032,0,0,1,32.3,12.13,15.569,15.569,0,0,1,29.129,20.554Z" transform="translate(-3.375 -3.938)" fill="#707070"/>
</svg>
